<svg width="17" height="18" viewBox="0 0 17 18" fill="none" xmlns="http://www.w3.org/2000/svg">
<rect width="17" height="18" fill="#4295E4"/>
<path opacity="0.9" d="M6.71875 11.8743L4.10938 9.26702C4.03646 9.19372 4 9.09948 4 8.98429C4 8.86911 4.03646 8.77487 4.10938 8.70157L4.6875 8.13613C4.76042 8.05236 4.85156 8.01048 4.96094 8.01048C5.07031 8.01048 5.16667 8.05236 5.25 8.13613L7 9.89529L10.75 6.12565C10.8333 6.04188 10.9297 6 11.0391 6C11.1484 6 11.2396 6.04188 11.3125 6.12565L11.8906 6.6911C11.9635 6.7644 12 6.85864 12 6.97382C12 7.08901 11.9635 7.18325 11.8906 7.25654L7.28125 11.8743C7.20833 11.9581 7.11458 12 7 12C6.88542 12 6.79167 11.9581 6.71875 11.8743Z" fill="white"/>
</svg>
